<svg width="192" height="192" viewBox="0 0 192 192" fill="none" xmlns="http://www.w3.org/2000/svg">
<mask id="path-1-inside-1" fill="white">
<path fill-rule="evenodd" clip-rule="evenodd" d="M44 20C37.3726 20 32 25.3726 32 32V148C32 154.627 37.3726 160 44 160H110.909L108 184L125.091 160H148C154.627 160 160 154.627 160 148V32C160 25.3726 154.627 20 148 20H44Z"/>
</mask>
<path fill-rule="evenodd" clip-rule="evenodd" d="M44 20C37.3726 20 32 25.3726 32 32V148C32 154.627 37.3726 160 44 160H110.909L108 184L125.091 160H148C154.627 160 160 154.627 160 148V32C160 25.3726 154.627 20 148 20H44Z" fill="#383E40"/>
<path d="M110.909 160L111.902 160.12L112.038 159H110.909V160ZM108 184L107.007 183.88L108.815 184.58L108 184ZM125.091 160V159H124.575L124.276 159.42L125.091 160ZM33 32C33 25.9249 37.9249 21 44 21V19C36.8203 19 31 24.8203 31 32H33ZM33 148V32H31V148H33ZM44 159C37.9249 159 33 154.075 33 148H31C31 155.18 36.8203 161 44 161V159ZM110.909 159H44V161H110.909V159ZM108.993 184.12L111.902 160.12L109.916 159.88L107.007 183.88L108.993 184.12ZM124.276 159.42L107.185 183.42L108.815 184.58L125.905 160.58L124.276 159.42ZM148 159H125.091V161H148V159ZM159 148C159 154.075 154.075 159 148 159V161C155.18 161 161 155.18 161 148H159ZM159 32V148H161V32H159ZM148 21C154.075 21 159 25.9249 159 32H161C161 24.8203 155.18 19 148 19V21ZM44 21H148V19H44V21Z" fill="white" mask="url(#path-1-inside-1)"/>
<g clip-path="url(#clip0)">
<path d="M26.6 61.384C31.144 61.384 33.928 57.512 33.928 50.728C33.928 43.88 31.144 40.2 26.6 40.2C22.056 40.2 19.272 43.88 19.272 50.728C19.272 57.512 22.056 61.384 26.6 61.384ZM26.6 42.216C29.448 42.216 31.464 44.776 31.464 50.728C31.464 52.488 31.272 53.96 30.952 55.176L23.176 44.104C24.04 42.824 25.224 42.216 26.6 42.216ZM26.6 59.368C23.752 59.368 21.736 56.68 21.736 50.728C21.736 48.968 21.928 47.464 22.248 46.28L30.024 57.384C29.192 58.728 27.976 59.368 26.6 59.368ZM39.3555 61H53.0515V58.824H47.7395V40.584H45.7875C44.5075 41.256 42.9075 41.768 40.7315 42.088V43.784H45.1155V58.824H39.3555V61ZM64.975 61.384C69.519 61.384 72.303 57.512 72.303 50.728C72.303 43.88 69.519 40.2 64.975 40.2C60.431 40.2 57.647 43.88 57.647 50.728C57.647 57.512 60.431 61.384 64.975 61.384ZM64.975 42.216C67.823 42.216 69.839 44.776 69.839 50.728C69.839 52.488 69.647 53.96 69.327 55.176L61.551 44.104C62.415 42.824 63.599 42.216 64.975 42.216ZM64.975 59.368C62.127 59.368 60.111 56.68 60.111 50.728C60.111 48.968 60.303 47.464 60.623 46.28L68.399 57.384C67.567 58.728 66.351 59.368 64.975 59.368ZM77.7305 61H91.4265V58.824H86.1145V40.584H84.1625C82.8825 41.256 81.2825 41.768 79.1065 42.088V43.784H83.4905V58.824H77.7305V61ZM103.35 61.384C107.894 61.384 110.678 57.512 110.678 50.728C110.678 43.88 107.894 40.2 103.35 40.2C98.806 40.2 96.022 43.88 96.022 50.728C96.022 57.512 98.806 61.384 103.35 61.384ZM103.35 42.216C106.198 42.216 108.214 44.776 108.214 50.728C108.214 52.488 108.022 53.96 107.702 55.176L99.926 44.104C100.79 42.824 101.974 42.216 103.35 42.216ZM103.35 59.368C100.502 59.368 98.486 56.68 98.486 50.728C98.486 48.968 98.678 47.464 98.998 46.28L106.774 57.384C105.942 58.728 104.726 59.368 103.35 59.368ZM122.538 61.384C127.082 61.384 129.866 57.512 129.866 50.728C129.866 43.88 127.082 40.2 122.538 40.2C117.994 40.2 115.21 43.88 115.21 50.728C115.21 57.512 117.994 61.384 122.538 61.384ZM122.538 42.216C125.386 42.216 127.402 44.776 127.402 50.728C127.402 52.488 127.21 53.96 126.89 55.176L119.114 44.104C119.978 42.824 121.161 42.216 122.538 42.216ZM122.538 59.368C119.69 59.368 117.674 56.68 117.674 50.728C117.674 48.968 117.866 47.464 118.186 46.28L125.962 57.384C125.13 58.728 123.914 59.368 122.538 59.368ZM135.293 61H148.989V58.824H143.677V40.584H141.725C140.445 41.256 138.845 41.768 136.669 42.088V43.784H141.053V58.824H135.293V61ZM154.481 61H168.177V58.824H162.865V40.584H160.913C159.633 41.256 158.033 41.768 155.857 42.088V43.784H160.241V58.824H154.481V61ZM173.668 61H187.364V58.824H182.052V40.584H180.1C178.82 41.256 177.22 41.768 175.044 42.088V43.784H179.428V58.824H173.668V61ZM26.6 101.384C31.144 101.384 33.928 97.512 33.928 90.728C33.928 83.88 31.144 80.2 26.6 80.2C22.056 80.2 19.272 83.88 19.272 90.728C19.272 97.512 22.056 101.384 26.6 101.384ZM26.6 82.216C29.448 82.216 31.464 84.776 31.464 90.728C31.464 92.488 31.272 93.96 30.952 95.176L23.176 84.104C24.04 82.824 25.224 82.216 26.6 82.216ZM26.6 99.368C23.752 99.368 21.736 96.68 21.736 90.728C21.736 88.968 21.928 87.464 22.248 86.28L30.024 97.384C29.192 98.728 27.976 99.368 26.6 99.368ZM39.3555 101H53.0515V98.824H47.7395V80.584H45.7875C44.5075 81.256 42.9075 81.768 40.7315 82.088V83.784H45.1155V98.824H39.3555V101ZM58.543 101H72.239V98.824H66.927V80.584H64.975C63.695 81.256 62.095 81.768 59.919 82.088V83.784H64.303V98.824H58.543V101ZM84.1625 101.384C88.7065 101.384 91.4905 97.512 91.4905 90.728C91.4905 83.88 88.7065 80.2 84.1625 80.2C79.6185 80.2 76.8345 83.88 76.8345 90.728C76.8345 97.512 79.6185 101.384 84.1625 101.384ZM84.1625 82.216C87.0105 82.216 89.0265 84.776 89.0265 90.728C89.0265 92.488 88.8345 93.96 88.5145 95.176L80.7385 84.104C81.6025 82.824 82.7865 82.216 84.1625 82.216ZM84.1625 99.368C81.3145 99.368 79.2985 96.68 79.2985 90.728C79.2985 88.968 79.4905 87.464 79.8105 86.28L87.5865 97.384C86.7545 98.728 85.5385 99.368 84.1625 99.368ZM103.35 101.384C107.894 101.384 110.678 97.512 110.678 90.728C110.678 83.88 107.894 80.2 103.35 80.2C98.806 80.2 96.022 83.88 96.022 90.728C96.022 97.512 98.806 101.384 103.35 101.384ZM103.35 82.216C106.198 82.216 108.214 84.776 108.214 90.728C108.214 92.488 108.022 93.96 107.702 95.176L99.926 84.104C100.79 82.824 101.974 82.216 103.35 82.216ZM103.35 99.368C100.502 99.368 98.486 96.68 98.486 90.728C98.486 88.968 98.678 87.464 98.998 86.28L106.774 97.384C105.942 98.728 104.726 99.368 103.35 99.368ZM116.106 101H129.802V98.824H124.49V80.584H122.538C121.258 81.256 119.658 81.768 117.482 82.088V83.784H121.866V98.824H116.106V101ZM141.725 101.384C146.269 101.384 149.053 97.512 149.053 90.728C149.053 83.88 146.269 80.2 141.725 80.2C137.181 80.2 134.397 83.88 134.397 90.728C134.397 97.512 137.181 101.384 141.725 101.384ZM141.725 82.216C144.573 82.216 146.589 84.776 146.589 90.728C146.589 92.488 146.397 93.96 146.077 95.176L138.301 84.104C139.165 82.824 140.349 82.216 141.725 82.216ZM141.725 99.368C138.877 99.368 136.861 96.68 136.861 90.728C136.861 88.968 137.053 87.464 137.373 86.28L145.149 97.384C144.317 98.728 143.101 99.368 141.725 99.368ZM154.481 101H168.177V98.824H162.865V80.584H160.913C159.633 81.256 158.033 81.768 155.857 82.088V83.784H160.241V98.824H154.481V101ZM180.1 101.384C184.644 101.384 187.428 97.512 187.428 90.728C187.428 83.88 184.644 80.2 180.1 80.2C175.556 80.2 172.772 83.88 172.772 90.728C172.772 97.512 175.556 101.384 180.1 101.384ZM180.1 82.216C182.948 82.216 184.964 84.776 184.964 90.728C184.964 92.488 184.772 93.96 184.452 95.176L176.676 84.104C177.54 82.824 178.724 82.216 180.1 82.216ZM180.1 99.368C177.252 99.368 175.236 96.68 175.236 90.728C175.236 88.968 175.428 87.464 175.748 86.28L183.524 97.384C182.692 98.728 181.476 99.368 180.1 99.368ZM20.168 141H33.864V138.824H28.552V120.584H26.6C25.32 121.256 23.72 121.768 21.544 122.088V123.784H25.928V138.824H20.168V141ZM39.3555 141H53.0515V138.824H47.7395V120.584H45.7875C44.5075 121.256 42.9075 121.768 40.7315 122.088V123.784H45.1155V138.824H39.3555V141ZM64.975 141.384C69.519 141.384 72.303 137.512 72.303 130.728C72.303 123.88 69.519 120.2 64.975 120.2C60.431 120.2 57.647 123.88 57.647 130.728C57.647 137.512 60.431 141.384 64.975 141.384ZM64.975 122.216C67.823 122.216 69.839 124.776 69.839 130.728C69.839 132.488 69.647 133.96 69.327 135.176L61.551 124.104C62.415 122.824 63.599 122.216 64.975 122.216ZM64.975 139.368C62.127 139.368 60.111 136.68 60.111 130.728C60.111 128.968 60.303 127.464 60.623 126.28L68.399 137.384C67.567 138.728 66.351 139.368 64.975 139.368ZM84.1625 141.384C88.7065 141.384 91.4905 137.512 91.4905 130.728C91.4905 123.88 88.7065 120.2 84.1625 120.2C79.6185 120.2 76.8345 123.88 76.8345 130.728C76.8345 137.512 79.6185 141.384 84.1625 141.384ZM84.1625 122.216C87.0105 122.216 89.0265 124.776 89.0265 130.728C89.0265 132.488 88.8345 133.96 88.5145 135.176L80.7385 124.104C81.6025 122.824 82.7865 122.216 84.1625 122.216ZM84.1625 139.368C81.3145 139.368 79.2985 136.68 79.2985 130.728C79.2985 128.968 79.4905 127.464 79.8105 126.28L87.5865 137.384C86.7545 138.728 85.5385 139.368 84.1625 139.368ZM96.918 141H110.614V138.824H105.302V120.584H103.35C102.07 121.256 100.47 121.768 98.294 122.088V123.784H102.678V138.824H96.918V141ZM116.106 141H129.802V138.824H124.49V120.584H122.538C121.258 121.256 119.658 121.768 117.482 122.088V123.784H121.866V138.824H116.106V141ZM141.725 141.384C146.269 141.384 149.053 137.512 149.053 130.728C149.053 123.88 146.269 120.2 141.725 120.2C137.181 120.2 134.397 123.88 134.397 130.728C134.397 137.512 137.181 141.384 141.725 141.384ZM141.725 122.216C144.573 122.216 146.589 124.776 146.589 130.728C146.589 132.488 146.397 133.96 146.077 135.176L138.301 124.104C139.165 122.824 140.349 122.216 141.725 122.216ZM141.725 139.368C138.877 139.368 136.861 136.68 136.861 130.728C136.861 128.968 137.053 127.464 137.373 126.28L145.149 137.384C144.317 138.728 143.101 139.368 141.725 139.368ZM160.913 141.384C165.457 141.384 168.241 137.512 168.241 130.728C168.241 123.88 165.457 120.2 160.913 120.2C156.369 120.2 153.585 123.88 153.585 130.728C153.585 137.512 156.369 141.384 160.913 141.384ZM160.913 122.216C163.761 122.216 165.777 124.776 165.777 130.728C165.777 132.488 165.585 133.96 165.265 135.176L157.489 124.104C158.353 122.824 159.536 122.216 160.913 122.216ZM160.913 139.368C158.065 139.368 156.049 136.68 156.049 130.728C156.049 128.968 156.241 127.464 156.561 126.28L164.337 137.384C163.505 138.728 162.289 139.368 160.913 139.368Z" fill="#88FFF1"/>
<rect x="32" y="20" width="128" height="140" fill="url(#paint0_linear)"/>
</g>
<mask id="path-6-inside-2" fill="white">
<path fill-rule="evenodd" clip-rule="evenodd" d="M44 20C37.3726 20 32 25.3726 32 32V148C32 154.627 37.3726 160 44 160H110.909L108 184L125.091 160H148C154.627 160 160 154.627 160 148V32C160 25.3726 154.627 20 148 20H44Z"/>
</mask>
<path d="M110.909 160L111.902 160.12L112.038 159H110.909V160ZM108 184L107.007 183.88L108.815 184.58L108 184ZM125.091 160V159H124.575L124.276 159.42L125.091 160ZM33 32C33 25.9249 37.9249 21 44 21V19C36.8203 19 31 24.8203 31 32H33ZM33 148V32H31V148H33ZM44 159C37.9249 159 33 154.075 33 148H31C31 155.18 36.8203 161 44 161V159ZM110.909 159H44V161H110.909V159ZM108.993 184.12L111.902 160.12L109.916 159.88L107.007 183.88L108.993 184.12ZM124.276 159.42L107.185 183.42L108.815 184.58L125.905 160.58L124.276 159.42ZM148 159H125.091V161H148V159ZM159 148C159 154.075 154.075 159 148 159V161C155.18 161 161 155.18 161 148H159ZM159 32V148H161V32H159ZM148 21C154.075 21 159 25.9249 159 32H161C161 24.8203 155.18 19 148 19V21ZM44 21H148V19H44V21Z" fill="white" mask="url(#path-6-inside-2)"/>
<defs>
<linearGradient id="paint0_linear" x1="96" y1="20" x2="96" y2="160" gradientUnits="userSpaceOnUse">
<stop stop-color="#26292A"/>
<stop offset="1" stop-color="#26292A" stop-opacity="0"/>
</linearGradient>
<clipPath id="clip0">
<rect x="32" y="20" width="128" height="140" rx="12" fill="white"/>
</clipPath>
</defs>
</svg>
